PathFileType	4	(X/Y/Z)	Walk8.trc
DataRate	CameraRate	NumFrames	NumMarkers	Units	OrigDataRate	OrigDataStartFrame	OrigNumFrames
200.000000	200.000000	9	61	mm	200.000000	334	439
Frame#	Times		LFHD		RFHD		LBHD		CLAV		STRN		LASI		RASI		RACR1		RUA1		RFA1		RWRR		RWRU		RCAR		LACR1		LUA1		LFA1		LWRU		LCAR		RTH3		RTH2		RTH4		RMFC		RTB1		RTB3		RTB4		RMT5		LTH1		LTH3		LTH2		LTH4		LLFC		LTB1		LTB3		LTB2		LTB4		LMMAL		LToe		RLFC		RTH1		RElbow		RToe		RTB2		T10		LElbow		RMT1		RMMAL		LMFC		LPSI		RBack		LWRR		LMT5		RBHD		RLMAL		LCAL		RPSI		RCAL		LLMAL		RElbowM		C7		LMT1		LElbowM
			X1	Y1	Z1	X2	Y2	Z2	X3	Y3	Z3	X4	Y4	Z4	X5	Y5	Z5	X6	Y6	Z6	X7	Y7	Z7	X8	Y8	Z8	X9	Y9	Z9	X10	Y10	Z10	X11	Y11	Z11	X12	Y12	Z12	X13	Y13	Z13	X14	Y14	Z14	X15	Y15	Z15	X16	Y16	Z16	X17	Y17	Z17	X18	Y18	Z18	X19	Y19	Z19	X20	Y20	Z20	X21	Y21	Z21	X22	Y22	Z22	X23	Y23	Z23	X24	Y24	Z24	X25	Y25	Z25	X26	Y26	Z26	X27	Y27	Z27	X28	Y28	Z28	X29	Y29	Z29	X30	Y30	Z30	X31	Y31	Z31	X32	Y32	Z32	X33	Y33	Z33	X34	Y34	Z34	X35	Y35	Z35	X36	Y36	Z36	X37	Y37	Z37	X38	Y38	Z38	X39	Y39	Z39	X40	Y40	Z40	X41	Y41	Z41	X42	Y42	Z42	X43	Y43	Z43	X44	Y44	Z44	X45	Y45	Z45	X46	Y46	Z46	X47	Y47	Z47	X48	Y48	Z48	X49	Y49	Z49	X50	Y50	Z50	X51	Y51	Z51	X52	Y52	Z52	X53	Y53	Z53	X54	Y54	Z54	X55	Y55	Z55	X56	Y56	Z56	X57	Y57	Z57	X58	Y58	Z58	X59	Y59	Z59	X60	Y60	Z60	X61	Y61	Z61

334	1.67	879.23	1586.7	-41.384	874.56	1590	58.023	743	1510.7	-67.715	852.69	1306.7	8.3809	873.04	1171.4	11.822	829.14	900.72	-102.3	829.13	914.28	147.86	788.34	1342.5	176.84	796.06	1175.1	234.88	907.8	918.47	285.89	966.15	814.46	279.28	1007.5	851.35	239.14	1036.2	784.21	280.71	771.47	1353.1	-144.33	711.89	1185.3	-191.71	614.33	910.08	-211.91	629.8	784.45	-210.43	571.41	731.43	-225.42	695.83	590.09	178.45	771.66	661	170.89	720.03	668.35	197.83	614.82	452.43	21.033	633.45	338.27	116.34	566.4	179.84	91.271	601.02	257.86	105.76	565	25.861	112.93	811.9	736.06	-174.04	867.73	575.05	-147.37	890.88	678.12	-140.54	839.47	654.64	-162.55	919.7	452.27	-122.46	990.14	375.84	-60.929	1036.1	211.02	-55.73	996.65	286.66	-118.55	1010.6	291.79	-59.057	1033.6	108.76	-20.158	1222.2	120.87	-61.88	647.35	445.77	149.18	747.19	748.02	220.93	807.34	1009.8	275.25	658.12	23.552	65.945	553.96	272.88	142.79	664.04	1200.8	21.328	645.94	1040.9	-189.45	605.34	31.747	29.822	500.49	111.82	18.608	902.31	431.22	8.5486	653.47	953.34	-32.861	666.8	1286.8	90.039	567.45	802.88	-186.19	1143.9	82.168	-106.74	738.19	1522.1	76.787	475.95	94.892	96.431	988.34	36.874	-54.807	656.03	953.99	66.901	423.93	83.473	50.152	1025.7	86.493	-100.25	772.56	996.25	204.47	742.54	1410.6	10.596	1169	107.16	-32.865	648.73	1026.7	-116.29
335	1.675	886.6	1585.9	-41.701	881.93	1589.1	57.713	750.47	1509.7	-68.028	860.27	1305.8	8.0129	880.68	1170.5	11.461	837.19	899.73	-102.42	836.5	913.42	147.85	795.84	1341.5	176.45	803.74	1174.1	234.46	916.17	918.13	285.28	975.25	814.57	278.45	1016.3	851.84	238.39	1045.5	784.83	279.84	779.04	1352.2	-144.71	718.9	1184.7	-192.16	620.46	909.8	-212.45	635.44	784.08	-211	576.83	731.1	-225.66	701.69	589.82	178.31	777.88	660.35	170.9	726.28	667.96	197.71	620.37	452.35	21	637.32	338.09	116.47	568.43	180.42	91.561	603.93	258.08	105.98	565.15	25.964	113	820.22	735.36	-174.47	875.49	574.15	-147.65	898.72	677.2	-140.15	847.5	653.85	-162.93	927.17	451.26	-122.4	998.3	375.66	-60.842	1046.5	211.37	-55.536	1006	286.47	-118.43	1019.9	291.84	-58.936	1045.3	109.1	-19.854	1233.8	123.63	-61.363	652.43	445.58	149.24	753.76	747.55	220.74	815.14	1008.8	274.85	658.09	23.573	65.84	557.02	273.65	142.93	671.7	1199.9	20.844	652.57	1040.4	-189.91	605.43	31.702	29.843	501.64	113.14	19.01	909.02	429.78	8.433	661.35	952.49	-33.807	674.37	1285.8	89.575	573.15	802.77	-186.74	1156.2	83.62	-106.28	745.66	1521.1	76.494	477.01	96.513	96.863	1001	36.45	-54.289	663.65	953.06	65.98	424.79	85.723	50.659	1037.7	86.591	-99.891	780.32	995.23	204.06	750.09	1409.7	10.205	1180.9	109.26	-32.476	655.34	1026.2	-116.74
336	1.68	893.97	1585.1	-42.022	889.3	1588.3	57.399	757.95	1508.7	-68.365	867.85	1304.9	7.6094	888.36	1169.6	11.076	845.27	898.75	-102.54	843.95	912.55	147.82	803.34	1340.6	176.03	811.41	1173.2	234	924.45	917.74	284.67	984.2	814.61	277.65	1025	852.24	237.65	1054.7	785.36	279.01	786.6	1351.3	-145.13	726.03	1184	-192.65	626.8	909.46	-213.09	641.31	783.66	-211.63	582.5	730.73	-226	707.72	589.51	178.17	784.25	659.68	170.86	732.71	667.54	197.58	626.07	452.24	21.013	641.36	337.87	116.63	570.56	181.02	91.903	606.95	258.29	106.23	565.32	26.065	113.1	828.63	734.72	-174.86	883.4	573.35	-147.8	906.67	676.38	-139.72	855.64	653.14	-163.22	934.73	450.3	-122.3	1006.4	375.31	-60.737	1056.2	211.47	-55.258	1015	286.11	-118.24	1028.8	291.7	-58.758	1056.1	109.24	-19.416	1244.5	125.64	-60.85	657.72	445.34	149.32	760.5	747.05	220.51	822.9	1007.9	274.42	658.04	23.601	65.73	560.25	274.44	143.13	679.4	1198.9	20.33	659.34	1039.9	-190.46	605.5	31.652	29.875	502.85	114.51	19.49	915.9	428.5	8.3611	669.29	951.66	-34.745	681.95	1284.9	89.07	579.05	802.61	-187.43	1167.4	84.556	-105.74	753.14	1520.1	76.177	478.15	98.195	97.38	1012.5	35.98	-53.613	671.35	952.14	65.069	425.71	88.075	51.25	1048.7	86.495	-99.372	788.07	994.2	203.61	757.64	1408.7	9.7845	1191.7	110.77	-32.038	662.07	1025.6	-117.26
337	1.685	901.35	1584.3	-42.348	896.68	1587.5	57.081	765.43	1507.8	-68.727	875.45	1304.1	7.1701	896.07	1168.7	10.667	853.39	897.79	-102.68	851.49	911.67	147.76	810.84	1339.6	175.58	819.05	1172.2	233.51	932.65	917.32	284.06	993.02	814.59	276.86	1033.6	852.54	236.93	1063.7	785.8	278.21	794.16	1350.4	-145.57	733.27	1183.3	-193.2	633.35	909.07	-213.83	647.4	783.19	-212.33	588.41	730.3	-226.46	713.94	589.16	178.03	790.79	659	170.78	739.3	667.08	197.43	631.92	452.1	21.074	645.55	337.62	116.82	572.79	181.64	92.298	610.11	258.49	106.52	565.52	26.163	113.22	837.12	734.14	-175.2	891.46	572.66	-147.82	914.75	675.68	-139.27	863.88	652.5	-163.4	942.37	449.37	-122.16	1014.3	374.81	-60.614	1065.3	211.3	-54.897	1023.5	285.55	-117.98	1037.3	291.35	-58.524	1065.9	109.16	-18.847	1254.2	126.87	-60.333	663.22	445.07	149.43	767.39	746.53	220.25	830.6	1007	273.97	657.99	23.635	65.616	563.65	275.23	143.4	687.13	1197.9	19.788	666.27	1039.4	-191.09	605.56	31.599	29.919	504.14	115.93	20.048	922.97	427.39	8.338	677.28	950.87	-35.668	689.53	1283.9	88.523	585.16	802.4	-188.25	1177.4	84.94	-105.13	760.61	1519.1	75.835	479.38	99.941	97.98	1022.8	35.436	-52.79	679.13	951.24	64.171	426.71	90.54	51.926	1058.5	86.176	-98.697	795.78	993.18	203.12	765.18	1407.8	9.3347	1201.6	111.64	-31.546	668.92	1025	-117.87
338	1.69	908.75	1583.6	-42.679	904.05	1586.7	56.759	772.92	1506.9	-69.115	883.07	1303.2	6.6953	903.81	1167.9	10.232	861.55	896.85	-102.84	859.11	910.78	147.66	818.34	1338.6	175.1	826.67	1171.3	232.99	940.75	916.86	283.45	1001.7	814.5	276.08	1042.1	852.76	236.23	1072.5	786.14	277.44	801.72	1349.6	-146.05	740.62	1182.6	-193.79	640.1	908.64	-214.66	653.74	782.68	-213.1	594.58	729.82	-227.04	720.35	588.75	177.9	797.5	658.3	170.65	746.06	666.59	197.26	637.91	451.91	21.181	649.92	337.33	117.04	575.13	182.27	92.75	613.41	258.67	106.84	565.75	26.261	113.36	845.67	733.61	-175.49	899.65	572.06	-147.72	922.93	675.07	-138.81	872.22	651.94	-163.48	950.12	448.49	-121.99	1022.2	374.14	-60.471	1073.8	210.86	-54.45	1031.5	284.79	-117.64	1045.5	290.79	-58.231	1074.8	108.82	-18.151	1262.9	127.27	-59.799	668.94	444.74	149.56	774.44	745.98	219.96	838.26	1006	273.49	657.92	23.675	65.499	567.22	276.02	143.72	694.9	1196.9	19.218	673.34	1038.8	-191.81	605.6	31.541	29.976	505.51	117.4	20.685	930.25	426.44	8.3692	685.32	950.09	-36.572	697.13	1282.9	87.936	591.47	802.14	-189.19	1186.3	84.753	-104.43	768.08	1518.1	75.467	480.71	101.75	98.661	1031.9	34.801	-51.836	686.97	950.37	63.294	427.81	93.127	52.684	1067.3	85.615	-97.875	803.46	992.17	202.59	772.72	1406.9	8.8549	1210.4	111.84	-30.99	675.89	1024.4	-118.56
339	1.695	916.15	1582.8	-43.014	911.42	1585.9	56.432	780.41	1506	-69.529	890.7	1302.4	6.1855	911.59	1167.1	9.7669	869.74	895.94	-103.03	866.82	909.88	147.52	825.85	1337.7	174.59	834.26	1170.4	232.44	948.77	916.36	282.84	1010.2	814.35	275.32	1050.5	852.88	235.55	1081.2	786.38	276.7	809.29	1348.7	-146.56	748.08	1181.8	-194.43	647.05	908.15	-215.58	660.3	782.12	-213.93	600.99	729.29	-227.74	726.97	588.3	177.77	804.37	657.57	170.49	752.98	666.06	197.08	644.05	451.69	21.336	654.46	336.99	117.3	577.61	182.92	93.259	616.85	258.84	107.21	566	26.361	113.52	854.26	733.12	-175.72	907.97	571.54	-147.51	931.21	674.56	-138.36	880.63	651.44	-163.47	957.95	447.65	-121.78	1029.9	373.3	-60.302	1081.7	210.12	-53.918	1039.2	283.84	-117.22	1053.3	290	-57.876	1082.8	108.21	-17.335	1270.7	126.85	-59.229	674.88	444.37	149.72	781.64	745.4	219.64	845.86	1005.1	272.99	657.85	23.717	65.381	570.98	276.82	144.12	702.69	1195.9	18.62	680.56	1038.2	-192.6	605.63	31.48	30.047	506.98	118.92	21.399	937.74	425.65	8.4606	693.41	949.35	-37.45	704.74	1281.9	87.309	597.99	801.82	-190.25	1194.2	83.991	-103.66	775.55	1517.2	75.073	482.15	103.63	99.421	1039.9	34.067	-50.774	694.89	949.52	62.441	429.01	95.844	53.523	1075.1	84.81	-96.917	811.12	991.16	202.02	780.26	1406	8.3443	1218.4	111.36	-30.361	682.99	1023.6	-119.32
340	1.7	923.55	1582.1	-43.355	918.8	1585.1	56.099	787.91	1505.2	-69.971	898.35	1301.6	5.6415	919.41	1166.4	9.271	877.96	895.05	-103.25	874.62	908.98	147.33	833.37	1336.7	174.04	841.83	1169.4	231.86	956.7	915.83	282.23	1018.6	814.14	274.59	1058.7	852.92	234.9	1089.7	786.53	276	816.87	1347.8	-147.1	755.64	1181	-195.11	654.2	907.62	-216.58	667.1	781.52	-214.83	607.65	728.72	-228.55	733.79	587.79	177.66	811.41	656.82	170.3	760.08	665.48	196.88	650.35	451.43	21.536	659.19	336.61	117.59	580.22	183.59	93.826	620.45	258.98	107.61	566.29	26.466	113.7	862.89	732.65	-175.91	916.4	571.09	-147.22	939.58	674.13	-137.93	889.11	650.98	-163.37	965.88	446.85	-121.54	1037.6	372.3	-60.1	1089	209.11	-53.297	1046.5	282.69	-116.72	1060.8	289	-57.454	1089.9	107.34	-16.408	1277.6	125.59	-58.603	681.06	443.93	149.9	788.99	744.79	219.28	853.41	1004.2	272.46	657.76	23.761	65.26	574.93	277.62	144.56	710.53	1194.9	17.995	687.92	1037.5	-193.48	605.65	31.415	30.132	508.58	120.5	22.189	945.44	425.02	8.6173	701.54	948.64	-38.299	712.36	1280.9	86.643	604.73	801.45	-191.42	1201.1	82.668	-102.79	783.01	1516.2	74.653	483.72	105.59	100.26	1046.8	33.24	-49.634	702.89	948.7	61.618	430.34	98.695	54.437	1081.9	83.766	-95.841	818.75	990.17	201.43	787.8	1405.1	7.8026	1225.4	110.2	-29.647	690.22	1022.9	-120.17
341	1.705	930.97	1581.5	-43.701	926.17	1584.3	55.761	795.42	1504.4	-70.44	906.02	1300.8	5.0646	927.26	1165.7	8.7421	886.22	894.2	-103.51	882.51	908.06	147.1	840.9	1335.8	173.47	849.36	1168.5	231.25	964.54	915.27	281.62	1026.9	813.86	273.87	1066.8	852.86	234.26	1098.1	786.57	275.33	824.46	1347	-147.67	763.3	1180.2	-195.85	661.54	907.04	-217.67	674.14	780.87	-215.81	614.56	728.11	-229.49	740.82	587.21	177.56	818.63	656.04	170.08	767.35	664.86	196.67	656.83	451.11	21.782	664.12	336.18	117.92	582.97	184.28	94.451	624.22	259.11	108.06	566.6	26.581	113.9	871.52	732.2	-176.05	924.91	570.7	-146.85	948.02	673.76	-137.54	897.63	650.56	-163.22	973.88	446.08	-121.26	1045.2	371.16	-59.855	1095.7	207.83	-52.589	1053.4	281.37	-116.15	1068	287.8	-56.962	1096.1	106.22	-15.385	1283.7	123.54	-57.897	687.49	443.43	150.1	796.48	744.15	218.9	860.91	1003.3	271.91	657.65	23.803	65.139	579.09	278.43	145.07	718.4	1194	17.342	695.43	1036.8	-194.43	605.66	31.349	30.23	510.31	122.13	23.051	953.34	424.54	8.8423	709.72	947.96	-39.115	720	1279.9	85.939	611.68	801.03	-192.71	1207.1	80.812	-101.85	790.47	1515.3	74.207	485.43	107.62	101.16	1052.8	32.338	-48.444	710.95	947.9	60.828	431.83	101.68	55.424	1087.8	82.504	-94.666	826.34	989.2	200.81	795.34	1404.2	7.2294	1231.6	108.38	-28.838	697.58	1022.1	-121.1
342	1.71	938.39	1580.8	-44.052	933.54	1583.5	55.417	802.93	1503.7	-70.937	913.71	1300.1	4.4564	935.16	1165	8.1792	894.52	893.38	-103.8	890.49	907.14	146.81	848.44	1334.9	172.86	856.87	1167.6	230.62	972.29	914.67	281.01	1035	813.51	273.18	1074.8	852.71	233.64	1106.4	786.52	274.69	832.06	1346.2	-148.27	771.06	1179.4	-196.62	669.08	906.42	-218.84	681.4	780.19	-216.85	621.72	727.46	-230.55	748.06	586.57	177.47	826.02	655.23	169.84	774.79	664.19	196.45	663.5	450.73	22.071	669.27	335.69	118.29	585.89	184.99	95.134	628.18	259.21	108.54	566.95	26.71	114.11	880.14	731.77	-176.16	933.49	570.35	-146.42	956.52	673.44	-137.21	906.18	650.17	-163.01	981.94	445.35	-120.96	1052.7	369.89	-59.559	1102	206.31	-51.792	1060	279.89	-115.49	1074.9	286.43	-56.395	1101.7	104.86	-14.281	1289	120.74	-57.091	694.18	442.86	150.32	804.12	743.47	218.5	868.37	1002.4	271.34	657.53	23.842	65.018	583.46	279.24	145.62	726.31	1193	16.661	703.06	1036.1	-195.45	605.67	31.282	30.341	512.2	123.81	23.98	961.42	424.2	9.1355	717.94	947.31	-39.894	727.66	1278.9	85.197	618.85	800.55	-194.09	1212.2	78.466	-100.82	797.92	1514.4	73.735	487.28	109.73	102.12	1057.7	31.389	-47.239	719.07	947.13	60.075	433.49	104.82	56.476	1092.9	81.058	-93.415	833.9	988.25	200.17	802.89	1403.3	6.6242	1237	105.93	-27.925	705.07	1021.3	-122.1
